<?xml version="1.0" encoding="iso-8859-1"?>
<!-- Generator: Adobe Illustrator 19.0.0, SVG Export Plug-In . SVG Version: 6.00 Build 0)  -->
<svg version="1.1" id="Capa_1" xmlns="http://www.w3.org/2000/svg" xmlns:xlink="http://www.w3.org/1999/xlink" x="0px" y="0px"
	 viewBox="0 0 409.6 409.6" style="enable-background:new 0 0 409.6 409.6;" xml:space="preserve">
<path style="fill:#E56353;" d="M279.82,280.399c0,71.356-62.64,129.201-139.91,129.201S0,351.755,0,280.399
	C0,191.338,69.802,173.487,139.91,0C139.91,0,279.82,209.043,279.82,280.399z"/>
<path style="fill:#D15241;" d="M139.911,0.001C126.169,34,112.449,61.96,99.255,85.711c20.362,37.714,32.534,84.112,32.534,134.493
	c0,69.558-22.988,131.731-59.12,173.49c19.959,10.125,42.864,15.906,67.243,15.906c77.267,0,139.907-57.846,139.907-129.202
	S139.911,0.001,139.911,0.001z"/>
<path style="fill:#EBF0F3;" d="M409.091,298.999c-4.654-46.964-42.641-84.949-89.605-89.6
	c-63.47-6.286-116.371,46.615-110.087,110.084c4.65,46.967,42.638,84.956,89.605,89.609
	C362.476,415.378,415.381,362.471,409.091,298.999z"/>
<polygon style="fill:#E56353;" points="375.568,288.913 329.578,288.913 329.578,242.924 288.913,242.924 288.913,288.913 
	242.923,288.913 242.923,329.577 288.913,329.577 288.913,375.567 329.578,375.567 329.578,329.577 375.568,329.577 "/>
<g>
</g>
<g>
</g>
<g>
</g>
<g>
</g>
<g>
</g>
<g>
</g>
<g>
</g>
<g>
</g>
<g>
</g>
<g>
</g>
<g>
</g>
<g>
</g>
<g>
</g>
<g>
</g>
<g>
</g>
</svg>
