<?xml version="1.0" ?><svg id="Layer_1" style="enable-background:new 0 0 468 468;" version="1.1" viewBox="0 0 468 468" xml:space="preserve" xmlns="http://www.w3.org/2000/svg" xmlns:xlink="http://www.w3.org/1999/xlink"><g><g><rect height="418.493" style="fill:#E0E0E0;" width="280" x="94" y="5"/><rect height="418.493" style="fill:#C9C9C9;" width="20" x="94" y="5"/><path d="M374,428.493H94c-2.762,0-5-2.238-5-5V5c0-2.762,2.238-5,5-5h280c2.762,0,5,2.238,5,5v418.493    C379,426.255,376.762,428.493,374,428.493z M99,418.493h270V10H99V418.493z" style="fill:#333333;"/></g><g><rect height="39.507" style="fill:#ED4848;" width="458" x="5" y="423.493"/><rect height="39.507" style="fill:#CC4040;" width="20" x="5" y="423.493"/><path d="M463,468H5c-2.762,0-5-2.238-5-5v-39.507c0-2.762,2.238-5,5-5h458c2.762,0,5,2.238,5,5V463    C468,465.762,465.762,468,463,468z M10,458h448v-29.507H10V458z" style="fill:#333333;"/></g><g><rect height="278.18" style="fill:#E0E0E0;" width="144.254" x="5" y="145.312"/><rect height="278.18" style="fill:#C9C9C9;" width="18" x="5" y="145.313"/><path d="M149.254,428.493H5c-2.762,0-5-2.238-5-5V145.313c0-2.762,2.238-5,5-5h144.254c2.762,0,5,2.238,5,5    v278.181C154.254,426.255,152.016,428.493,149.254,428.493z M10,418.493h134.254V150.313H10V418.493z" style="fill:#333333;"/><g><g><g><rect height="30.403" style="fill:#E0E0E0;" width="26.667" x="35.127" y="214"/><path d="M61.794,249.402H35.127c-2.762,0-5-2.238-5-5V214c0-2.762,2.238-5,5-5h26.667       c2.762,0,5,2.238,5,5v30.402C66.794,247.164,64.556,249.402,61.794,249.402z M40.127,239.402h16.667V219H40.127V239.402z" style="fill:#333333;"/></g></g><g><g><rect height="30.403" style="fill:#E0E0E0;" width="26.667" x="92.46" y="214"/><path d="M119.127,249.402H92.461c-2.762,0-5-2.238-5-5V214c0-2.762,2.238-5,5-5h26.666       c2.762,0,5,2.238,5,5v30.402C124.127,247.164,121.889,249.402,119.127,249.402z M97.461,239.402h16.666V219H97.461V239.402z" style="fill:#333333;"/></g></g><g><g><rect height="30.403" style="fill:#E0E0E0;" width="26.667" x="92.46" y="274"/><path d="M119.127,309.402H92.461c-2.762,0-5-2.238-5-5V274c0-2.762,2.238-5,5-5h26.666       c2.762,0,5,2.238,5,5v30.402C124.127,307.164,121.889,309.402,119.127,309.402z M97.461,299.402h16.666V279H97.461V299.402z" style="fill:#333333;"/></g></g><g><g><rect height="30.403" style="fill:#E0E0E0;" width="26.667" x="35.127" y="274"/><path d="M61.794,309.402H35.127c-2.762,0-5-2.238-5-5V274c0-2.762,2.238-5,5-5h26.667       c2.762,0,5,2.238,5,5v30.402C66.794,307.164,64.556,309.402,61.794,309.402z M40.127,299.402h16.667V279H40.127V299.402z" style="fill:#333333;"/></g></g></g><rect height="37.857" style="fill:#ED4848;" width="144.254" x="5" y="145.312"/><rect height="37.857" style="fill:#CC4040;" width="18" x="5" y="145.313"/><path d="M149.254,188.17H5c-2.762,0-5-2.238-5-5v-37.857c0-2.762,2.238-5,5-5h144.254c2.762,0,5,2.238,5,5    v37.857C154.254,185.932,152.016,188.17,149.254,188.17z M10,178.17h134.254v-27.857H10V178.17z" style="fill:#333333;"/><g><g><rect height="67.612" style="fill:#00AAE5;" width="30" x="47.127" y="355.881"/><path d="M77.127,428.493h-30c-2.762,0-5-2.238-5-5v-67.612c0-2.762,2.238-5,5-5h30c2.762,0,5,2.238,5,5      v67.612C82.127,426.255,79.889,428.493,77.127,428.493z M52.127,418.493h20v-57.612h-20V418.493z" style="fill:#333333;"/></g><g><rect height="67.612" style="fill:#29B6F6;" width="30" x="77.127" y="355.881"/><path d="M107.127,428.493h-30c-2.762,0-5-2.238-5-5v-67.612c0-2.762,2.238-5,5-5h30c2.762,0,5,2.238,5,5      v67.612C112.127,426.255,109.889,428.493,107.127,428.493z M82.127,418.493h20v-57.612h-20V418.493z" style="fill:#333333;"/></g></g></g><g><rect height="278.18" style="fill:#E0E0E0;" width="144.254" x="318.746" y="145.312"/><rect height="278.18" style="fill:#C9C9C9;" width="18" x="318.746" y="145.313"/><path d="M463,428.493H318.746c-2.762,0-5-2.238-5-5V145.313c0-2.762,2.238-5,5-5H463c2.762,0,5,2.238,5,5    v278.181C468,426.255,465.762,428.493,463,428.493z M323.746,418.493H458V150.313H323.746V418.493z" style="fill:#333333;"/><g><g><g><rect height="30.403" style="fill:#E0E0E0;" width="26.667" x="348.873" y="214"/><path d="M375.539,249.402h-26.666c-2.762,0-5-2.238-5-5V214c0-2.762,2.238-5,5-5h26.666       c2.762,0,5,2.238,5,5v30.402C380.539,247.164,378.301,249.402,375.539,249.402z M353.873,239.402h16.666V219h-16.666V239.402z" style="fill:#333333;"/></g></g><g><g><rect height="30.403" style="fill:#E0E0E0;" width="26.667" x="406.206" y="214"/><path d="M432.873,249.402h-26.667c-2.762,0-5-2.238-5-5V214c0-2.762,2.238-5,5-5h26.667       c2.762,0,5,2.238,5,5v30.402C437.873,247.164,435.635,249.402,432.873,249.402z M411.206,239.402h16.667V219h-16.667V239.402z" style="fill:#333333;"/></g></g><g><g><rect height="30.403" style="fill:#E0E0E0;" width="26.667" x="406.206" y="274"/><path d="M432.873,309.402h-26.667c-2.762,0-5-2.238-5-5V274c0-2.762,2.238-5,5-5h26.667       c2.762,0,5,2.238,5,5v30.402C437.873,307.164,435.635,309.402,432.873,309.402z M411.206,299.402h16.667V279h-16.667V299.402z" style="fill:#333333;"/></g></g><g><g><rect height="30.403" style="fill:#E0E0E0;" width="26.667" x="348.873" y="274"/><path d="M375.539,309.402h-26.666c-2.762,0-5-2.238-5-5V274c0-2.762,2.238-5,5-5h26.666       c2.762,0,5,2.238,5,5v30.402C380.539,307.164,378.301,309.402,375.539,309.402z M353.873,299.402h16.666V279h-16.666V299.402z" style="fill:#333333;"/></g></g></g><rect height="37.857" style="fill:#ED4848;" width="144.254" x="318.746" y="145.312"/><rect height="37.857" style="fill:#CC4040;" width="18" x="318.746" y="145.313"/><path d="M463,188.17H318.746c-2.762,0-5-2.238-5-5v-37.857c0-2.762,2.238-5,5-5H463c2.762,0,5,2.238,5,5    v37.857C468,185.932,465.762,188.17,463,188.17z M323.746,178.17H458v-27.857H323.746V178.17z" style="fill:#333333;"/><g><g><rect height="67.612" style="fill:#00AAE5;" width="30" x="360.873" y="355.881"/><path d="M390.873,428.493h-30c-2.762,0-5-2.238-5-5v-67.612c0-2.762,2.238-5,5-5h30c2.762,0,5,2.238,5,5      v67.612C395.873,426.255,393.635,428.493,390.873,428.493z M365.873,418.493h20v-57.612h-20V418.493z" style="fill:#333333;"/></g><g><rect height="67.612" style="fill:#29B6F6;" width="30" x="390.873" y="355.881"/><path d="M420.873,428.493h-30c-2.762,0-5-2.238-5-5v-67.612c0-2.762,2.238-5,5-5h30c2.762,0,5,2.238,5,5      v67.612C425.873,426.255,423.635,428.493,420.873,428.493z M395.873,418.493h20v-57.612h-20V418.493z" style="fill:#333333;"/></g></g></g><g><rect height="39.508" style="fill:#ED4848;" width="280" x="94" y="5"/><rect height="39.509" style="fill:#CC4040;" width="20" x="94" y="5"/><path d="M374,49.509H94c-2.762,0-5-2.238-5-5V5c0-2.762,2.238-5,5-5h280c2.762,0,5,2.238,5,5v39.509    C379,47.271,376.762,49.509,374,49.509z M99,39.509h270V10H99V39.509z" style="fill:#333333;"/></g><g><g><rect height="114.9" style="fill:#29B6F6;" width="79.661" x="194.169" y="308.593"/><path d="M273.83,428.493h-79.66c-2.762,0-5-2.238-5-5v-114.9c0-2.762,2.238-5,5-5h79.66     c2.762,0,5,2.238,5,5v114.9C278.83,426.255,276.592,428.493,273.83,428.493z M199.17,418.493h69.66v-104.9h-69.66V418.493z" style="fill:#333333;"/></g><g><rect height="114.9" style="fill:#00AAE5;" width="39.831" x="194.169" y="308.593"/><path d="M234,428.493h-39.83c-2.762,0-5-2.238-5-5V308.594c0-2.762,2.238-5,5-5H234c2.762,0,5,2.238,5,5     v114.899C239,426.255,236.762,428.493,234,428.493z M199.17,418.493H229V313.594h-29.83V418.493z" style="fill:#333333;"/></g></g><g><ellipse cx="234" cy="131.612" rx="52.585" ry="52.612" style="fill:#ED4848;"/><path d="M198.415,131.612c0-26.16,19.087-47.851,44.085-51.918C239.732,79.244,236.895,79,234,79    c-29.042,0-52.585,23.555-52.585,52.612s23.543,52.612,52.585,52.612c2.895,0,5.732-0.244,8.5-0.694    C217.501,179.463,198.415,157.772,198.415,131.612z" style="fill:#CC4040;"/><path d="M234,189.224c-31.753,0-57.585-25.845-57.585-57.612C176.415,99.845,202.247,74,234,74    s57.585,25.845,57.585,57.611C291.585,163.379,265.753,189.224,234,189.224z M234,84c-26.238,0-47.585,21.358-47.585,47.611    c0,26.254,21.347,47.612,47.585,47.612s47.585-21.358,47.585-47.612C281.585,105.358,260.238,84,234,84z" style="fill:#333333;"/><g><path d="M209,136.612c-2.762,0-5-2.238-5-5s2.238-5,5-5l50-0.001c2.762,0,5,2.238,5,5s-2.238,5-5,5     L209,136.612z" style="fill:#333333;"/><path d="M234,161.624c-2.762,0-5-2.238-5-5V106.6c0-2.762,2.238-5,5-5s5,2.238,5,5v50.024     C239,159.386,236.762,161.624,234,161.624z" style="fill:#333333;"/></g></g></g><g/><g/><g/><g/><g/><g/><g/><g/><g/><g/><g/><g/><g/><g/><g/></svg>