<?xml version="1.0" ?><svg id="Layer_1" style="enable-background:new 0 0 468 468;" version="1.1" viewBox="0 0 468 468" xml:space="preserve" xmlns="http://www.w3.org/2000/svg" xmlns:xlink="http://www.w3.org/1999/xlink"><g id="XMLID_201_"><g id="XMLID_533_"><g><path d="M27.158,150.855l13.364-46.863c1.849-6.484,7.777-10.955,14.524-10.955h244.359     c5.937,0,11.636,2.329,15.872,6.485l49.532,48.604L27.158,150.855z" id="XMLID_181_" style="fill:#E0E0E0;"/><path d="M61.646,93.036h-6.6c-6.747,0-12.675,4.472-14.524,10.955l-13.364,46.863l18.042-0.146     L61.646,93.036z" style="fill:#C9C9C9;"/><path d="M27.158,155.854c-1.561,0-3.033-0.729-3.979-1.972c-0.954-1.254-1.261-2.885-0.829-4.399     l13.364-46.863c2.448-8.587,10.398-14.584,19.332-14.584h244.359c7.291,0,14.171,2.812,19.374,7.916l49.532,48.605     c1.444,1.417,1.892,3.565,1.134,5.441c-0.758,1.876-2.572,3.11-4.596,3.127l-337.652,2.729     C27.185,155.854,27.171,155.854,27.158,155.854z M55.046,98.036c-4.49,0-8.486,3.013-9.715,7.326l-11.532,40.438l318.877-2.577     l-40.9-40.134c-3.322-3.259-7.715-5.054-12.37-5.054H55.046z" style="fill:#333333;"/></g><g><path d="M454.067,273.759L364.81,148.126c-5.662-3.851-12.349-5.91-19.194-5.91H35.786     c-4.765,0-8.628,3.868-8.628,8.639v0c-9.788,36.24-14.746,104.174-14.746,141.716v1.323l-4.945,6.291v74.945h443.12     c5.494,0,9.948-4.459,9.948-9.96l-0.821-74.162C459.619,284.819,457.65,278.804,454.067,273.759z" id="XMLID_130_" style="fill:#E0E0E0;"/><path d="M30.412,293.894v-1.323c0-37.542,4.958-105.475,14.746-141.716v-8.639h-9.372     c-4.765,0-8.628,3.868-8.628,8.639c-9.788,36.24-14.746,104.173-14.746,141.716v1.323l-4.946,6.291v74.945h18v-74.945     L30.412,293.894z" style="fill:#C9C9C9;"/><path d="M450.586,380.13H7.466c-2.761,0-5-2.238-5-5v-74.945c0-1.121,0.376-2.209,1.069-3.09l3.876-4.932     c0.036-35.347,4.733-104.369,14.766-142.039c0.38-7.183,6.339-12.908,13.608-12.908h309.831c7.879,0,15.489,2.343,22.005,6.776     c0.492,0.334,0.92,0.753,1.264,1.238l89.257,125.634c4.188,5.895,6.46,12.834,6.57,20.068l0.821,74.182     C465.534,373.419,458.828,380.13,450.586,380.13z M12.466,370.13h438.12c2.728,0,4.948-2.225,4.948-4.96l-0.82-74.105     c-0.079-5.182-1.712-10.171-4.723-14.408c0,0,0-0.001,0-0.001l-88.715-124.871c-4.688-2.991-10.083-4.568-15.659-4.568H35.786     c-2,0-3.628,1.632-3.628,3.639c0,0.44-0.058,0.879-0.173,1.304c-9.941,36.81-14.573,105.547-14.573,140.412v1.323     c0,1.121-0.376,2.209-1.069,3.09l-3.876,4.931V370.13z" style="fill:#333333;"/></g><g><path d="M226.749,174.505h105.79c5.107,0,9.876,2.558,12.705,6.816l33.365,50.222H226.749     V174.505z" id="XMLID_180_" style="fill:#29B6F6;"/><path d="M345.244,181.321c-2.829-4.258-7.597-6.816-12.705-6.816h-11.824l37.893,57.039h20     L345.244,181.321z" style="fill:#00AAE5;"/><path d="M378.608,236.544H226.749c-2.761,0-5-2.238-5-5v-57.039c0-2.762,2.239-5,5-5h105.79     c6.798,0,13.105,3.383,16.869,9.05l33.365,50.223c1.02,1.534,1.113,3.506,0.242,5.13     C382.144,235.53,380.451,236.544,378.608,236.544z M231.749,226.544h137.535l-28.205-42.456c-1.907-2.87-5.099-4.583-8.54-4.583     h-100.79V226.544z" style="fill:#333333;"/></g><g><path d="M458.031,281.5l-445.49-0.111c-0.085,3.955-0.128,7.701-0.128,11.182v1.323l-4.946,6.291v74.945     h443.12c5.494,0,9.948-4.459,9.948-9.96l-0.821-74.162C459.664,287.75,459.081,284.545,458.031,281.5z" style="fill:#ED4848;"/><path d="M30.412,293.894v-1.323c0-3.48,0.043-7.224,0.128-11.178l-18-0.005     c-0.085,3.955-0.128,7.701-0.128,11.182v1.323l-4.946,6.291v74.945h18v-74.945L30.412,293.894z" style="fill:#CC4040;"/><path d="M450.586,380.13H7.466c-2.761,0-5-2.238-5-5v-74.945c0-1.121,0.376-2.209,1.069-3.09l3.876-4.932     c0.003-3.391,0.047-7.049,0.129-10.882c0.059-2.719,2.28-4.893,4.999-4.893c0,0,0,0,0.001,0l445.491,0.111     c2.132,0.001,4.03,1.354,4.725,3.37c1.241,3.596,1.898,7.317,1.955,11.062l0.821,74.183     C465.534,373.419,458.829,380.13,450.586,380.13z M12.466,370.13h438.12c2.728,0,4.947-2.225,4.947-4.96l-0.82-74.106     c-0.023-1.523-0.188-3.051-0.493-4.564L17.454,286.39c-0.028,2.144-0.042,4.211-0.042,6.181v1.323     c0,1.121-0.376,2.209-1.069,3.09l-3.876,4.932V370.13z" style="fill:#333333;"/></g><g><path d="M270.375,93.036H224.59V65.893C224.59,53.249,234.84,43,247.483,43h0     c12.643,0,22.893,10.249,22.893,22.893V93.036z" id="XMLID_186_" style="fill:#ED4848;"/><path d="M255.483,44.439c-2.491-0.929-5.186-1.439-8-1.439c-12.643,0-22.893,10.242-22.893,22.876v27.16     h16v-27.16C240.59,56.054,246.785,47.681,255.483,44.439z" style="fill:#CC4040;"/><path d="M270.375,98.036H224.59c-2.761,0-5-2.238-5-5V65.893c0-15.38,12.513-27.893,27.893-27.893     s27.893,12.513,27.893,27.893v27.144C275.375,95.798,273.137,98.036,270.375,98.036z M229.59,88.036h35.785V65.893     c0-9.866-8.026-17.893-17.893-17.893s-17.893,8.026-17.893,17.893V88.036z" style="fill:#333333;"/></g><g><ellipse cx="92.645" cy="375.13" id="XMLID_23_" rx="50" ry="49.87" style="fill:#E5E5E5;"/><path d="M92.645,430c-30.327,0-55-24.614-55-54.87s24.673-54.87,55-54.87s55,24.614,55,54.87     S122.972,430,92.645,430z M92.645,330.26c-24.813,0-45,20.129-45,44.87s20.187,44.87,45,44.87s45-20.129,45-44.87     S117.458,330.26,92.645,330.26z" style="fill:#333333;"/></g><g><ellipse cx="374.93" cy="375.13" id="XMLID_22_" rx="50" ry="49.87" style="fill:#E5E5E5;"/><path d="M374.93,430c-30.327,0-55-24.614-55-54.87s24.673-54.87,55-54.87s55,24.614,55,54.87     S405.257,430,374.93,430z M374.93,330.26c-24.813,0-45,20.129-45,44.87s20.187,44.87,45,44.87s45-20.129,45-44.87     S399.743,330.26,374.93,330.26z" style="fill:#333333;"/></g><g><rect height="58.701" style="fill:#29B6F6;" width="58.744" x="131.136" y="174.505"/><rect height="58.701" style="fill:#00AAE5;" width="18" x="171.88" y="174.505"/><path d="M189.88,238.206h-58.744c-2.761,0-5-2.238-5-5v-58.701c0-2.762,2.239-5,5-5h58.744     c2.761,0,5,2.238,5,5v58.701C194.88,235.968,192.641,238.206,189.88,238.206z M136.136,228.206h48.744v-48.701h-48.744V228.206z" style="fill:#333333;"/></g><g><g><path d="M78.237,229.692c-2.761,0-5-2.238-5-5v-41.674c0-2.762,2.239-5,5-5s5,2.238,5,5v41.674      C83.237,227.454,80.999,229.692,78.237,229.692z" style="fill:#333333;"/><path d="M98.932,208.855H57.542c-2.761,0-5-2.238-5-5s2.239-5,5-5h41.389c2.761,0,5,2.238,5,5      S101.693,208.855,98.932,208.855z" style="fill:#333333;"/></g></g></g><g><g><line style="fill:#FFFFFF;" x1="444.186" x2="463" y1="425" y2="425"/><path d="M463,430h-18.814c-2.761,0-5-2.238-5-5s2.239-5,5-5H463c2.761,0,5,2.238,5,5S465.761,430,463,430z     " style="fill:#333333;"/></g><g><line style="fill:#FFFFFF;" x1="291.305" x2="414.186" y1="425" y2="425"/><path d="M414.186,430H291.305c-2.761,0-5-2.238-5-5s2.239-5,5-5h122.881c2.761,0,5,2.238,5,5     S416.947,430,414.186,430z" style="fill:#333333;"/></g><g><line style="fill:#FFFFFF;" x1="151.136" x2="251.305" y1="425" y2="425"/><path d="M251.305,430H151.136c-2.761,0-5-2.238-5-5s2.239-5,5-5h100.169c2.761,0,5,2.238,5,5     S254.066,430,251.305,430z" style="fill:#333333;"/></g><g><line style="fill:#FFFFFF;" x1="5" x2="121.136" y1="425" y2="425"/><path d="M121.136,430H5c-2.761,0-5-2.238-5-5s2.239-5,5-5h116.136c2.761,0,5,2.238,5,5     S123.897,430,121.136,430z" style="fill:#333333;"/></g></g></g><g/><g/><g/><g/><g/><g/><g/><g/><g/><g/><g/><g/><g/><g/><g/></svg>