<?xml version="1.0" ?><!DOCTYPE svg  PUBLIC '-//W3C//DTD SVG 1.1//EN'  'http://www.w3.org/Graphics/SVG/1.1/DTD/svg11.dtd'><svg height="512px" style="enable-background:new 0 0 512 512;" version="1.1" viewBox="0 0 512 512" width="512px" xml:space="preserve" xmlns="http://www.w3.org/2000/svg" xmlns:xlink="http://www.w3.org/1999/xlink"><g id="firetruck__x2C__truck_x2C__rescue_x2C__truck_x2C__fire_x2C_"><g><g><polygon points="215.07,424.116 130.497,424.116 153.574,447.321 215.07,447.321 276.562,447.321      299.639,424.116    " style="fill:#8A9AA9;"/><polygon points="215.07,424.116 149.749,424.116 167.567,439.243 215.07,439.243 262.557,439.243      280.386,424.116    " style="fill:#353335;"/></g><g><g><g><linearGradient gradientTransform="matrix(-1 0 0 1 -522.8799 0)" gradientUnits="userSpaceOnUse" id="SVGID_1_" x1="-567.0791" x2="-538.8799" y1="293.4238" y2="293.4238"><stop offset="0" style="stop-color:#8A9AA9"/><stop offset="0.029" style="stop-color:#9BAAB8"/><stop offset="0.0786" style="stop-color:#B1C0CB"/><stop offset="0.1261" style="stop-color:#BECDD7"/><stop offset="0.1684" style="stop-color:#C3D2DB"/><stop offset="0.4745" style="stop-color:#8A9AA9"/><stop offset="1" style="stop-color:#8A9AA9"/></linearGradient><path d="M16,327.328c0,4.193,3.95,7.6,8.803,7.6h19.396v-2.211H24.803       c-3.443,0-6.245-2.416-6.245-5.389v-67.807c0-2.973,2.802-5.394,6.245-5.394h19.396v-2.207H24.803       c-4.853,0-8.803,3.406-8.803,7.601V327.328z" style="fill:url(#SVGID_1_);"/></g></g><linearGradient gradientTransform="matrix(-1 0 0 1 -522.8799 0)" gradientUnits="userSpaceOnUse" id="SVGID_2_" x1="-560.436" x2="-539.1426" y1="293.4248" y2="293.4248"><stop offset="0" style="stop-color:#8A9AA9"/><stop offset="0.1888" style="stop-color:#C3D2DB"/><stop offset="0.7296" style="stop-color:#C3D2DB"/><stop offset="0.8371" style="stop-color:#A5B5C1"/><stop offset="0.9343" style="stop-color:#91A1AF"/><stop offset="1" style="stop-color:#8A9AA9"/></linearGradient><path d="M37.556,310.833c0,5.72-3.565,10.359-7.973,10.359H16.263v-55.535h13.321     c4.408,0,7.973,4.643,7.973,10.364V310.833z" style="fill:url(#SVGID_2_);"/></g><path d="M308.603,372.182v18.034c0,5.25,4.213,9.45,9.462,9.45h30.817    c5.154,0,9.365-4.2,9.365-9.45v-18.034c0-5.246-4.211-9.45-9.365-9.45h-30.817C312.815,362.731,308.603,366.936,308.603,372.182    L308.603,372.182z" style="fill-rule:evenodd;clip-rule:evenodd;fill:#647B98;"/><path d="M64.571,372.182v18.034c0,5.25,4.289,9.45,9.454,9.45h30.825    c5.162,0,9.447-4.2,9.447-9.45v-18.034c0-5.246-4.285-9.45-9.447-9.45H74.025C68.86,362.731,64.571,366.936,64.571,372.182    L64.571,372.182z" style="fill-rule:evenodd;clip-rule:evenodd;fill:#647B98;"/><linearGradient gradientUnits="userSpaceOnUse" id="SVGID_3_" x1="138.772" x2="271.5928" y1="206.5117" y2="206.5117"><stop offset="0" style="stop-color:#626A7B"/><stop offset="0.0707" style="stop-color:#626A7B"/><stop offset="0.5" style="stop-color:#626A7B"/><stop offset="0.7318" style="stop-color:#606879"/><stop offset="0.8153" style="stop-color:#5A6272"/><stop offset="0.8748" style="stop-color:#4E5867"/><stop offset="0.9229" style="stop-color:#3D4956"/><stop offset="0.9636" style="stop-color:#283540"/><stop offset="0.9995" style="stop-color:#0E1D25"/><stop offset="1" style="stop-color:#0E1D25"/></linearGradient><polygon points="271.593,186.851 138.772,186.851     138.772,226.173 267.771,226.173   " style="fill-rule:evenodd;clip-rule:evenodd;fill:url(#SVGID_3_);"/><linearGradient gradientUnits="userSpaceOnUse" id="SVGID_4_" x1="40.1055" x2="389.1504" y1="315.835" y2="315.835"><stop offset="0" style="stop-color:#610000"/><stop offset="0.0242" style="stop-color:#790501"/><stop offset="0.0583" style="stop-color:#940A02"/><stop offset="0.0975" style="stop-color:#AA0E03"/><stop offset="0.1433" style="stop-color:#BB1103"/><stop offset="0.1999" style="stop-color:#C61304"/><stop offset="0.2794" style="stop-color:#CD1504"/><stop offset="0.5" style="stop-color:#CF1504"/><stop offset="0.7297" style="stop-color:#CD1504"/><stop offset="0.8124" style="stop-color:#C61304"/><stop offset="0.8714" style="stop-color:#BB1003"/><stop offset="0.9191" style="stop-color:#AA0C02"/><stop offset="0.9595" style="stop-color:#940701"/><stop offset="0.9951" style="stop-color:#790100"/><stop offset="1" style="stop-color:#750000"/></linearGradient><path d="M388.676,342.34    c-103.664-1.902-208.441-1.11-313.063-1.11c-3.813,0-6.752-3.015-6.752-6.429v-80.789c0-3.816,2.939-6.511,6.752-6.511h193.747    c-0.477-3.261-0.711-6.915-1.025-10.097c-0.563-4.532-0.563-8.897-0.563-13.507H138.772v-39.321h132.821    c0.465-3.494,1.099-7.067,1.587-10.328l1.576-8.181H251.81h-29.713H67.988c-15.413,0-27.882,11.441-27.882,26.056    c0,73.722,0.635,144.742,0,217.9c0,7.716,24.387,11.123,29.313,11.123l0.239,1.751v24.463c0,3.573,3.253,6.271,7.069,6.271h36.303    c3.733,0,7.07-2.698,7.07-6.271v-24.463l0.235-1.751h190.66l0.233,1.751l2.402,40.117c0,3.571,0.539-5.97,4.349-5.97h36.459    c3.896,0,6.396,11.438,6.396,7.865l0.355-42.013l0.246-1.751c5.08,0,27.715-3.492,27.715-11.123V342.34H388.676z" style="fill-rule:evenodd;clip-rule:evenodd;fill:url(#SVGID_4_);"/><linearGradient gradientUnits="userSpaceOnUse" id="SVGID_5_" x1="222.0972" x2="251.8101" y1="151.2666" y2="151.2666"><stop offset="0" style="stop-color:#610000"/><stop offset="0.0242" style="stop-color:#790501"/><stop offset="0.0583" style="stop-color:#940A02"/><stop offset="0.0975" style="stop-color:#AA0E03"/><stop offset="0.1433" style="stop-color:#BB1103"/><stop offset="0.1999" style="stop-color:#C61304"/><stop offset="0.2794" style="stop-color:#CD1504"/><stop offset="0.5" style="stop-color:#CF1504"/><stop offset="0.7297" style="stop-color:#CD1504"/><stop offset="0.8124" style="stop-color:#C61304"/><stop offset="0.8714" style="stop-color:#BB1003"/><stop offset="0.9191" style="stop-color:#AA0C02"/><stop offset="0.9595" style="stop-color:#940701"/><stop offset="0.9951" style="stop-color:#790100"/><stop offset="1" style="stop-color:#750000"/></linearGradient><path d="M222.097,147.216L222.097,147.216    c0-7.308,6.673-13.587,14.859-13.587c8.095,0,14.854,6.279,14.854,13.587v21.688h-29.713V147.216z" style="fill-rule:evenodd;clip-rule:evenodd;fill:url(#SVGID_5_);"/><linearGradient gradientUnits="userSpaceOnUse" id="SVGID_6_" x1="232.3408" x2="240.3633" y1="115.1191" y2="115.1191"><stop offset="0" style="stop-color:#610000"/><stop offset="0.0242" style="stop-color:#790501"/><stop offset="0.0583" style="stop-color:#940A02"/><stop offset="0.0975" style="stop-color:#AA0E03"/><stop offset="0.1433" style="stop-color:#BB1103"/><stop offset="0.1999" style="stop-color:#C61304"/><stop offset="0.2794" style="stop-color:#CD1504"/><stop offset="0.5" style="stop-color:#CF1504"/><stop offset="0.7297" style="stop-color:#CD1504"/><stop offset="0.8124" style="stop-color:#C61304"/><stop offset="0.8714" style="stop-color:#BB1003"/><stop offset="0.9191" style="stop-color:#AA0C02"/><stop offset="0.9595" style="stop-color:#940701"/><stop offset="0.9951" style="stop-color:#790100"/><stop offset="1" style="stop-color:#750000"/></linearGradient><rect height="20.652" style="fill-rule:evenodd;clip-rule:evenodd;fill:url(#SVGID_6_);" width="8.022" x="232.341" y="104.793"/><linearGradient gradientUnits="userSpaceOnUse" id="SVGID_7_" x1="191.9077" x2="214.7031" y1="134.7813" y2="134.7813"><stop offset="0" style="stop-color:#610000"/><stop offset="0.0242" style="stop-color:#790501"/><stop offset="0.0583" style="stop-color:#940A02"/><stop offset="0.0975" style="stop-color:#AA0E03"/><stop offset="0.1433" style="stop-color:#BB1103"/><stop offset="0.1999" style="stop-color:#C61304"/><stop offset="0.2794" style="stop-color:#CD1504"/><stop offset="0.5" style="stop-color:#CF1504"/><stop offset="0.7297" style="stop-color:#CD1504"/><stop offset="0.8124" style="stop-color:#C61304"/><stop offset="0.8714" style="stop-color:#BB1003"/><stop offset="0.9191" style="stop-color:#AA0C02"/><stop offset="0.9595" style="stop-color:#940701"/><stop offset="0.9951" style="stop-color:#790100"/><stop offset="1" style="stop-color:#750000"/></linearGradient><polygon points="196.517,126.08 196.517,126.08     191.908,132.28 210.1,143.483 214.703,137.118   " style="fill-rule:evenodd;clip-rule:evenodd;fill:url(#SVGID_7_);"/><linearGradient gradientUnits="userSpaceOnUse" id="SVGID_8_" x1="258.5557" x2="281.043" y1="134.7813" y2="134.7813"><stop offset="0" style="stop-color:#610000"/><stop offset="0.0242" style="stop-color:#790501"/><stop offset="0.0583" style="stop-color:#940A02"/><stop offset="0.0975" style="stop-color:#AA0E03"/><stop offset="0.1433" style="stop-color:#BB1103"/><stop offset="0.1999" style="stop-color:#C61304"/><stop offset="0.2794" style="stop-color:#CD1504"/><stop offset="0.5" style="stop-color:#CF1504"/><stop offset="0.7297" style="stop-color:#CD1504"/><stop offset="0.8124" style="stop-color:#C61304"/><stop offset="0.8714" style="stop-color:#BB1003"/><stop offset="0.9191" style="stop-color:#AA0C02"/><stop offset="0.9595" style="stop-color:#940701"/><stop offset="0.9951" style="stop-color:#790100"/><stop offset="1" style="stop-color:#750000"/></linearGradient><polygon points="276.514,126.08 276.514,126.08     258.556,137.118 263.253,143.483 281.043,132.28   " style="fill-rule:evenodd;clip-rule:evenodd;fill:url(#SVGID_8_);"/><linearGradient gradientUnits="userSpaceOnUse" id="SVGID_9_" x1="68.4512" x2="122.0381" y1="445.5234" y2="445.5234"><stop offset="0" style="stop-color:#000000"/><stop offset="1" style="stop-color:#3D4148"/></linearGradient><path d="M116.913,420.729H73.589    c-2.831,0-5.138,2.533-5.138,5.636v38.317c0,3.1,2.308,5.638,5.138,5.638h43.324c2.82,0,5.125-2.538,5.125-5.638v-38.317    C122.038,423.262,119.733,420.729,116.913,420.729L116.913,420.729z" style="fill-rule:evenodd;clip-rule:evenodd;fill:url(#SVGID_9_);"/><linearGradient gradientUnits="userSpaceOnUse" id="SVGID_10_" x1="309.208" x2="362.7959" y1="446.2822" y2="446.2822"><stop offset="0" style="stop-color:#000000"/><stop offset="1" style="stop-color:#3D4148"/></linearGradient><path d="M357.671,421.486h-43.324    c-2.83,0-5.139,2.534-5.139,5.636v38.319c0,3.098,2.309,5.637,5.139,5.637h43.324c2.82,0,5.125-2.539,5.125-5.637v-38.319    C362.796,424.021,360.491,421.486,357.671,421.486L357.671,421.486z" style="fill-rule:evenodd;clip-rule:evenodd;fill:url(#SVGID_10_);"/><linearGradient gradientUnits="userSpaceOnUse" id="SVGID_11_" x1="37.1504" x2="391.1289" y1="413.8965" y2="413.8965"><stop offset="0" style="stop-color:#708192"/><stop offset="0.1378" style="stop-color:#A7ADB2"/><stop offset="0.1692" style="stop-color:#9BA1A7"/><stop offset="0.2264" style="stop-color:#7A838B"/><stop offset="0.2857" style="stop-color:#525D68"/><stop offset="0.3159" style="stop-color:#5E6973"/><stop offset="0.371" style="stop-color:#7F878F"/><stop offset="0.4441" style="stop-color:#B3B8BD"/><stop offset="0.5" style="stop-color:#E0E2E4"/><stop offset="0.6431" style="stop-color:#858C94"/><stop offset="0.7296" style="stop-color:#525D68"/><stop offset="0.8673" style="stop-color:#878F96"/><stop offset="1" style="stop-color:#708192"/></linearGradient><path d="M391.129,407.225c0-1.918-2.503-3.469-5.566-3.469H42.715c-3.08,0-5.565,1.551-5.565,3.469    v13.345c0,1.912,2.485,3.468,5.565,3.468h342.847c3.063,0,5.566-1.556,5.566-3.468V407.225z" style="fill:url(#SVGID_11_);"/><linearGradient gradientUnits="userSpaceOnUse" id="SVGID_12_" x1="122.2612" x2="334.939" y1="401.0176" y2="188.3398"><stop offset="0" style="stop-color:#708192"/><stop offset="0.1378" style="stop-color:#A7ADB2"/><stop offset="0.1692" style="stop-color:#9BA1A7"/><stop offset="0.2264" style="stop-color:#7A838B"/><stop offset="0.2857" style="stop-color:#525D68"/><stop offset="0.3159" style="stop-color:#5E6973"/><stop offset="0.371" style="stop-color:#7F878F"/><stop offset="0.4441" style="stop-color:#B3B8BD"/><stop offset="0.5" style="stop-color:#E0E2E4"/><stop offset="0.6431" style="stop-color:#858C94"/><stop offset="0.7296" style="stop-color:#525D68"/><stop offset="0.8673" style="stop-color:#878F96"/><stop offset="1" style="stop-color:#708192"/></linearGradient><path d="M388.701,347.254H79.914c-10.025,0-18.157-3.913-18.157-8.736v-87.679    c0-4.821,8.132-8.736,18.157-8.736h308.788V347.254z" style="fill:url(#SVGID_12_);"/><linearGradient gradientUnits="userSpaceOnUse" id="SVGID_13_" x1="68.8599" x2="388.6758" y1="297.1953" y2="297.1953"><stop offset="0" style="stop-color:#626A7B"/><stop offset="0.0707" style="stop-color:#626A7B"/><stop offset="0.5" style="stop-color:#626A7B"/><stop offset="0.7318" style="stop-color:#606879"/><stop offset="0.8153" style="stop-color:#5A6272"/><stop offset="0.8748" style="stop-color:#4E5867"/><stop offset="0.9229" style="stop-color:#3D4956"/><stop offset="0.9636" style="stop-color:#283540"/><stop offset="0.9995" style="stop-color:#0E1D25"/><stop offset="1" style="stop-color:#0E1D25"/></linearGradient><path d="M269.359,249.775H75.612    c-3.813,0-6.752,2.694-6.752,6.511v80.789c0,3.415,2.939,6.43,6.752,6.43c104.622,0,209.399-0.794,313.063,1.11l-0.146-4.291    l-23.357-1.746c-29.402-0.634-55.375-7.863-74.677-30.737c-15.02-17.796-20.416-37.265-20.979-57.916L269.359,249.775z" style="fill-rule:evenodd;clip-rule:evenodd;fill:url(#SVGID_13_);"/><g><g><g><g><linearGradient gradientUnits="userSpaceOnUse" id="SVGID_14_" x1="171.6724" x2="254.2699" y1="422.0947" y2="339.4972"><stop offset="0" style="stop-color:#8A9AA9"/><stop offset="0.2449" style="stop-color:#C3D2DB"/><stop offset="0.5" style="stop-color:#8A9AA9"/><stop offset="0.75" style="stop-color:#C3D2DB"/><stop offset="1" style="stop-color:#8A9AA9"/></linearGradient><path d="M284.486,391.878H141.455v-22.164h143.031V391.878z M281.702,390.174v-18.75h-137.46        v18.75H281.702z" style="fill:url(#SVGID_14_);"/></g></g><linearGradient gradientUnits="userSpaceOnUse" id="SVGID_15_" x1="212.9722" x2="212.9722" y1="373.0967" y2="371.3877"><stop offset="0" style="stop-color:#999999"/><stop offset="0.2908" style="stop-color:#403E40"/><stop offset="1" style="stop-color:#000000"/></linearGradient><rect height="1.709" style="fill:url(#SVGID_15_);" width="137.46" x="144.242" y="371.388"/><linearGradient gradientUnits="userSpaceOnUse" id="SVGID_16_" x1="178.1807" x2="247.7658" y1="408.7451" y2="339.16"><stop offset="0" style="stop-color:#8A9AA9"/><stop offset="0.2449" style="stop-color:#C3D2DB"/><stop offset="0.5" style="stop-color:#8A9AA9"/><stop offset="0.75" style="stop-color:#C3D2DB"/><stop offset="1" style="stop-color:#8A9AA9"/></linearGradient><rect height="1.71" style="fill:url(#SVGID_16_);" width="137.46" x="144.242" y="373.097"/><linearGradient gradientUnits="userSpaceOnUse" id="SVGID_17_" x1="212.9722" x2="212.9722" y1="376.5107" y2="374.8066"><stop offset="0" style="stop-color:#999999"/><stop offset="0.2908" style="stop-color:#403E40"/><stop offset="1" style="stop-color:#000000"/></linearGradient><rect height="1.704" style="fill:url(#SVGID_17_);" width="137.46" x="144.242" y="374.807"/><linearGradient gradientUnits="userSpaceOnUse" id="SVGID_18_" x1="178.1802" x2="247.7646" y1="412.1572" y2="342.5728"><stop offset="0" style="stop-color:#8A9AA9"/><stop offset="0.2449" style="stop-color:#C3D2DB"/><stop offset="0.5" style="stop-color:#8A9AA9"/><stop offset="0.75" style="stop-color:#C3D2DB"/><stop offset="1" style="stop-color:#8A9AA9"/></linearGradient><rect height="1.708" style="fill:url(#SVGID_18_);" width="137.46" x="144.242" y="376.511"/><linearGradient gradientUnits="userSpaceOnUse" id="SVGID_19_" x1="212.9722" x2="212.9722" y1="379.9277" y2="378.2188"><stop offset="0" style="stop-color:#999999"/><stop offset="0.2908" style="stop-color:#403E40"/><stop offset="1" style="stop-color:#000000"/></linearGradient><rect height="1.709" style="fill:url(#SVGID_19_);" width="137.46" x="144.242" y="378.219"/><linearGradient gradientUnits="userSpaceOnUse" id="SVGID_20_" x1="178.1821" x2="247.7645" y1="415.5723" y2="345.9899"><stop offset="0" style="stop-color:#8A9AA9"/><stop offset="0.2449" style="stop-color:#C3D2DB"/><stop offset="0.5" style="stop-color:#8A9AA9"/><stop offset="0.75" style="stop-color:#C3D2DB"/><stop offset="1" style="stop-color:#8A9AA9"/></linearGradient><rect height="1.704" style="fill:url(#SVGID_20_);" width="137.46" x="144.242" y="379.928"/><linearGradient gradientUnits="userSpaceOnUse" id="SVGID_21_" x1="212.9722" x2="212.9722" y1="383.3418" y2="381.6318"><stop offset="0" style="stop-color:#999999"/><stop offset="0.2908" style="stop-color:#403E40"/><stop offset="1" style="stop-color:#000000"/></linearGradient><rect height="1.71" style="fill:url(#SVGID_21_);" width="137.46" x="144.242" y="381.632"/><linearGradient gradientUnits="userSpaceOnUse" id="SVGID_22_" x1="178.1802" x2="247.7656" y1="418.9902" y2="349.4048"><stop offset="0" style="stop-color:#8A9AA9"/><stop offset="0.2449" style="stop-color:#C3D2DB"/><stop offset="0.5" style="stop-color:#8A9AA9"/><stop offset="0.75" style="stop-color:#C3D2DB"/><stop offset="1" style="stop-color:#8A9AA9"/></linearGradient><rect height="1.71" style="fill:url(#SVGID_22_);" width="137.46" x="144.242" y="383.342"/><linearGradient gradientUnits="userSpaceOnUse" id="SVGID_23_" x1="212.9722" x2="212.9722" y1="386.752" y2="385.0518"><stop offset="0" style="stop-color:#999999"/><stop offset="0.2908" style="stop-color:#403E40"/><stop offset="1" style="stop-color:#000000"/></linearGradient><rect height="1.7" style="fill:url(#SVGID_23_);" width="137.46" x="144.242" y="385.052"/><linearGradient gradientUnits="userSpaceOnUse" id="SVGID_24_" x1="178.1792" x2="247.7654" y1="422.4014" y2="352.8152"><stop offset="0" style="stop-color:#8A9AA9"/><stop offset="0.2449" style="stop-color:#C3D2DB"/><stop offset="0.5" style="stop-color:#8A9AA9"/><stop offset="0.75" style="stop-color:#C3D2DB"/><stop offset="1" style="stop-color:#8A9AA9"/></linearGradient><rect height="1.712" style="fill:url(#SVGID_24_);" width="137.46" x="144.242" y="386.752"/><linearGradient gradientUnits="userSpaceOnUse" id="SVGID_25_" x1="212.9722" x2="212.9722" y1="390.1738" y2="388.4639"><stop offset="0" style="stop-color:#999999"/><stop offset="0.2908" style="stop-color:#403E40"/><stop offset="1" style="stop-color:#000000"/></linearGradient><rect height="1.71" style="fill:url(#SVGID_25_);" width="137.46" x="144.242" y="388.464"/></g></g><linearGradient gradientUnits="userSpaceOnUse" id="SVGID_26_" x1="267.7471" x2="496" y1="190.7061" y2="190.7061"><stop offset="0" style="stop-color:#FD822C"/><stop offset="0.3196" style="stop-color:#F8642A"/><stop offset="1" style="stop-color:#EB1824"/></linearGradient><path d="M311.936,121.871    c-7.705,19.615-16.447,45.836-7.068,66.328c7.557,17.319,7.629,44.414-6.191,39.643c-18.034-6.278-10.649-51.078-23.92-59.499    c-9.048,40.116-14.131,109.235,15.739,139.498c19.302,22.874,45.36,30.429,74.677,31.057    c-0.965-24.55-63.64-72.216-12.798-140.765c13.262-18.105,18.109-17.874,26.534,2.141c13.431,32.413,8.583,45.998,4.37,78.891    c19.146-13.037,21.124-15.729,35.752-49.018l0,0c11.587,43.854,5.946,79.446-27.644,110.343    c78.876-4.689,128.438-83.34,92.931-142.682c-5.946,11.685-10,23.834-24.14,31.462c12.784-37.101,1.43-66.093-22.405-94.927    c-9.536,31.301-13.59,37.731-27.961,48.059c12.783-33.044-0.477-60.531-17.167-87.303c-8.327-13.586-18.193-26.367-18.903-43.366    C373.741,7.64,315.673,112.021,311.936,121.871L311.936,121.871z" style="fill-rule:evenodd;clip-rule:evenodd;fill:url(#SVGID_26_);"/><linearGradient gradientUnits="userSpaceOnUse" id="SVGID_27_" x1="332.4795" x2="424.5205" y1="262.6924" y2="262.6924"><stop offset="0" style="stop-color:#EB1824"/><stop offset="0.6804" style="stop-color:#F8642A"/><stop offset="1" style="stop-color:#FD822C"/></linearGradient><path d="M383.278,279.165    c4.213-32.894,9.061-46.478-4.37-78.891c-8.425-20.015-13.272-20.246-26.534-2.141c-50.683,68.239,11.283,115.825,12.798,140.445    l23.357,1.746l2.857,0.166c33.59-30.897,39.23-66.489,27.644-110.343C404.402,263.436,402.425,266.128,383.278,279.165    L383.278,279.165z" style="fill-rule:evenodd;clip-rule:evenodd;fill:url(#SVGID_27_);"/><g><linearGradient gradientTransform="matrix(-1 0 0 1 767.5625 0)" gradientUnits="userSpaceOnUse" id="SVGID_28_" x1="650.8457" x2="698.2402" y1="403.5703" y2="356.1759"><stop offset="0" style="stop-color:#8A9AA9"/><stop offset="0.2449" style="stop-color:#C3D2DB"/><stop offset="0.5" style="stop-color:#8A9AA9"/><stop offset="0.75" style="stop-color:#C3D2DB"/><stop offset="1" style="stop-color:#8A9AA9"/></linearGradient><path d="M60.988,365.331h64.06c1.099,0,1.984,0.886,1.984,1.979v25.124     c0,1.098-0.886,1.981-1.984,1.981h-64.06c-1.093,0-1.978-0.884-1.978-1.981V367.31C59.01,366.217,59.895,365.331,60.988,365.331z      M123.51,390.893v-22.039H62.532v22.039H123.51z" style="fill:url(#SVGID_28_);"/><linearGradient gradientTransform="matrix(-1 0 0 1 767.5625 0)" gradientUnits="userSpaceOnUse" id="SVGID_29_" x1="659.2969" x2="659.2969" y1="390.8936" y2="368.8545"><stop offset="0" style="stop-color:#3B4859"/><stop offset="1" style="stop-color:#8D97A1"/></linearGradient><rect height="22.039" style="fill:url(#SVGID_29_);" width="30.489" x="93.021" y="368.854"/><linearGradient gradientTransform="matrix(-1 0 0 1 767.5625 0)" gradientUnits="userSpaceOnUse" id="SVGID_30_" x1="689.7852" x2="689.7852" y1="390.8936" y2="368.8545"><stop offset="0" style="stop-color:#A08F44"/><stop offset="1" style="stop-color:#EAD99B"/></linearGradient><rect height="22.039" style="fill:url(#SVGID_30_);" width="30.489" x="62.532" y="368.854"/></g><g><linearGradient gradientTransform="matrix(1 0 0 1 -1185.0625 0)" gradientUnits="userSpaceOnUse" id="SVGID_31_" x1="1500.5391" x2="1547.9323" y1="405.1328" y2="357.7397"><stop offset="0" style="stop-color:#8A9AA9"/><stop offset="0.2449" style="stop-color:#C3D2DB"/><stop offset="0.5" style="stop-color:#8A9AA9"/><stop offset="0.75" style="stop-color:#C3D2DB"/><stop offset="1" style="stop-color:#8A9AA9"/></linearGradient><path d="M373.181,368.873v25.121c0,1.098-0.879,1.983-1.977,1.983h-64.057     c-1.098,0-1.988-0.886-1.988-1.983v-25.121c0-1.093,0.891-1.979,1.988-1.979h64.057     C372.302,366.894,373.181,367.78,373.181,368.873z M369.665,392.454v-22.037h-60.978v22.037H369.665z" style="fill:url(#SVGID_31_);"/><linearGradient gradientTransform="matrix(1 0 0 1 -1185.0625 0)" gradientUnits="userSpaceOnUse" id="SVGID_32_" x1="1508.9941" x2="1508.9941" y1="392.4541" y2="370.417"><stop offset="0" style="stop-color:#3B4859"/><stop offset="1" style="stop-color:#8D97A1"/></linearGradient><rect height="22.037" style="fill:url(#SVGID_32_);" width="30.488" x="308.688" y="370.417"/><linearGradient gradientTransform="matrix(1 0 0 1 -1185.0625 0)" gradientUnits="userSpaceOnUse" id="SVGID_33_" x1="1539.4824" x2="1539.4824" y1="392.4541" y2="370.417"><stop offset="0" style="stop-color:#A08F44"/><stop offset="1" style="stop-color:#EAD99B"/></linearGradient><rect height="22.037" style="fill:url(#SVGID_33_);" width="30.489" x="339.176" y="370.417"/></g></g></g><g id="Layer_1"/></svg>