<svg enable-background="new 0 0 140 140" height="512" viewBox="0 0 140 140" width="512" xmlns="http://www.w3.org/2000/svg"><circle cx="70" cy="70" fill="#344d5b" r="64"/><path d="m111.9646988 32.9341469h-83.9299965v14.6796875l4.4899902 4.1801758v55.2700157l25.8658447 25.8657227c3.7670288.690918 7.6428261 1.0703125 11.6094398 1.0703125 35.3463135 0 63.9999924-28.6538086 63.9999924-64 0-6.0566368-.8594971-11.9091759-2.4317017-17.4623985z" opacity=".1"/><path d="m32.52113 46.155682h75.051781v60.906044h-75.051781z" fill="#ededed"/><path d="m111.9646988 32.9341469v14.6796875l-4.3900147 4.1801758v-4.1801758h-75.0499916v4.1801758l-4.4899902-4.1801758v-14.6796875z" fill="#dd584d"/><path d="m111.9688644 47.6117592-4.3959579 4.1846962v-4.1846962z" fill="#cd5248"/><path d="m28.0311356 47.6116447 4.489994 4.1846924v-4.1846924z" fill="#cd5248"/><path d="m69.9997253 74.1111832c-6.3798714 0-11.551693 5.1721954-11.551693 11.5516891v21.3989639h23.1033821v-21.3989639c.0000001-6.3794937-5.1718139-11.5516891-11.5516891-11.5516891z" fill="#41a38e"/><path d="m79.4901428 85.6674042v4.7763138c-.3095016-.1344833-.6601868-.2065048-1.031517-.2065048s-.7116852.0720215-1.031517.2065048v-4.7763138c0-4.094841-3.3317795-7.4266281-7.4268799-7.4266281-4.0952225 0-7.4270058 3.3317871-7.4270058 7.4266281v21.3939285h-2.0630341v-21.3939285c0-5.2401886 4.2601738-9.4896622 9.4900398-9.4896622 5.229744 0 9.489914 4.2494736 9.489914 9.4896622z" fill="#4abba4"/><path d="m78.4586258 95.6113815c.3713303 0 .7220154-.0725327 1.031517-.2065048v11.656456h-2.0630341v-11.656456c.3198319.1339722.6601868.2065048 1.0315171.2065048z" fill="#4abba4"/><circle cx="78.463" cy="92.927" fill="#fff" r="1.308"/><path d="m36.933456 77.593178h17.102226v21.658882h-17.102226z" fill="#4288b9"/><path d="m36.2100334 76.8699265v23.1054993h18.5490875v-23.1054993zm17.1022339 5.8288497h-7.1042633v-4.3819962h7.1042633zm-8.5511169-4.3819961v4.3819962h-7.1042633v-4.3819962zm-7.1042633 5.8288498h7.1042633v14.3829422h-7.1042633zm8.5511169 14.3829422v-14.3829422h7.1042633v14.3829422z" fill="#fff"/><path d="m85.963722 77.593178h17.102226v21.658882h-17.102226z" fill="#4288b9"/><path d="m85.240303 76.8699265v23.1054993h18.5490799v-23.1054993zm17.1022263 5.8288497h-7.1042633v-4.3819962h7.1042633zm-8.5511093-4.3819961v4.3819962h-7.104271v-4.3819962zm-7.104271 5.8288498h7.104271v14.3829422h-7.104271zm8.551117 14.3829422v-14.3829422h7.1042633v14.3829422z" fill="#fff"/><path d="m69.9980698 69.7934647c-4.4693069-.57341-7.716404-4.5315857-7.4051399-9.0271683l.3506203-6.0354919c5.3048172-.1244736 7.0545197-2.8014412 7.0545197-2.8014412s1.7529755 2.6769676 7.0545578 2.8014412l.3538589 6.0354919c.3113021 4.4955826-2.9358369 8.4537582-7.4084168 9.0271683z" fill="#fed35b"/><path d="m69.998024 68.4829788-.0737534-.0112c-3.6845856-.5595322-6.3693962-3.911499-6.1121292-7.6310463l.2894211-4.9801559.4179001-.0413971c2.6284866-.2604256 4.2618332-1.194252 5.1689835-1.9317703l.3098984-.2519455.3100662.2518654c.9077835.7374802 2.5414505 1.6713066 5.1689835 1.9318504l.4175797.0413971.2914963 4.9723969c.2577515 3.7217445-2.4280167 7.0793953-6.1146851 7.6388054zm-4.9633942-11.7332496-.2414246 4.1534424c-.2209473 3.1932564 2.060524 6.0685692 5.2048187 6.5851021 3.1463852-.5165329 5.4286499-3.3974457 5.2073822-6.5925827l-.2430191-4.1459618c-2.366745-.3054237-3.9661789-1.1286964-4.9638824-1.8602562-.9972229.7316398-2.5963287 1.5549507-4.9638748 1.8602562z" fill="#e5c052"/><path d="m69.9993286 57.0659447 1.2116928 2.4551696 2.7094422.3937035-1.9605713 1.9110832.4628296 2.6984902-2.4233933-1.2740517-2.4234009 1.2740517.4628296-2.6984902-1.9605713-1.9110832 2.7094422-.3937035z" fill="#dd584d"/><g fill="#fff"><path d="m48.3991241 44.5697632v-8.5898438h2.7832031c1.0546875 0 1.7421875.0429688 2.0625.1289062.4921875.1289062.9042969.4091797 1.2363281.8408203s.4980469.9892578.4980469 1.6728516c0 .5273438-.0957031.9707031-.2871094 1.3300781s-.4345703.6416016-.7294922.8466797-.5947266.3408203-.8994141.4072266c-.4140625.0820312-1.0136719.1230469-1.7988281.1230469h-1.1308594v3.2402344zm1.734375-7.1367188v2.4375h.9492188c.6835938 0 1.140625-.0449219 1.3710938-.1347656s.4111328-.2304688.5419922-.421875.1962891-.4140625.1962891-.6679688c0-.3125-.0917969-.5703125-.2753906-.7734375s-.4160156-.3300781-.6972656-.3808594c-.2070312-.0390625-.6230469-.0585938-1.2480469-.0585938h-.8378908z"/><path d="m56.0514679 40.3275757c0-.875.1308594-1.609375.3925781-2.203125.1953125-.4375.4619141-.8300781.7998047-1.1777344s.7080078-.6054688 1.1103516-.7734375c.5351562-.2265625 1.1523438-.3398438 1.8515625-.3398438 1.265625 0 2.2783203.3925781 3.0380859 1.1777344s1.1396484 1.8769531 1.1396484 3.2753906c0 1.3867188-.3769531 2.4716797-1.1308594 3.2548828s-1.7617188 1.1748047-3.0234375 1.1748047c-1.2773438 0-2.2929688-.3896484-3.046875-1.1689453s-1.1308593-1.852539-1.1308593-3.2197265zm1.7871094-.0585938c0 .9726562.2246094 1.7099609.6738281 2.2119141s1.0195312.7529297 1.7109375.7529297 1.2587891-.2490234 1.7021484-.7470703.6650391-1.2451172.6650391-2.2412109c0-.984375-.2158203-1.71875-.6474609-2.203125s-1.0048828-.7265625-1.7197266-.7265625-1.2910156.2451172-1.7285156.7353516-.65625 1.2294921-.65625 2.2177733z"/><path d="m65.7838898 44.5697632v-8.5195312h1.734375v7.0722656h4.3125v1.4472656z"/><path d="m73.0143585 44.5697632v-8.5898438h1.734375v8.5898438z"/><path d="m81.897171 41.4115601 1.6816406.5332031c-.2578125.9375-.6865234 1.6337891-1.2861328 2.0888672s-1.3603516.6826172-2.2822266.6826172c-1.140625 0-2.078125-.3896484-2.8125-1.1689453s-1.1015625-1.8447266-1.1015625-3.1962891c0-1.4296875.3691406-2.5400391 1.1074219-3.3310547s1.7089844-1.1865234 2.9121094-1.1865234c1.0507812 0 1.9042969.3105469 2.5605469.9316406.390625.3671875.6835938.8945312.8789062 1.5820312l-1.7167969.4101562c-.1015625-.4453125-.3134766-.796875-.6357422-1.0546875s-.7138672-.3867188-1.1748047-.3867188c-.6367188 0-1.1533203.2285156-1.5498047.6855469s-.5947266 1.1972656-.5947266 2.2207031c0 1.0859375.1953125 1.859375.5859375 2.3203125s.8984375.6914062 1.5234375.6914062c.4609375 0 .8574219-.1464844 1.1894531-.4394531s.5703127-.7539061.7148439-1.3828123z"/><path d="m85.0670929 44.5697632v-8.5898438h6.3691406v1.453125h-4.6347656v1.9042969h4.3125v1.4472656h-4.3125v2.3378906h4.7988281v1.4472656h-6.5332031z"/></g></svg>